<svg xmlns="http://www.w3.org/2000/svg" width="256" height="256"><path fill-opacity=".4" d="M0 128.004v128.004l128.25-.254 128.25-.254.254-127.75L257.008 0H0v128.004m.485.496c0 70.4.119 99.053.265 63.672.146-35.38.146-92.98 0-128C.604 29.153.485 58.1.485 128.5" fill="#1976D2" fill-rule="evenodd"/><path fill-opacity=".124" d="M0 59.5C0 118.965.001 119 2.066 119c1.136 0 2.912.453 3.946 1.007 1.348.721 2.109.65 2.685-.25.905-1.416 8.303-1.771 8.303-.398 0 .487.562.441 1.25-.103s3.245-.819 5.683-.61c2.847.244 4.72-.072 5.235-.883.599-.944.805-.868.817.302.012 1.302 1.447 1.554 8.515 1.5 4.674-.036 8.499-.391 8.5-.79 0-.399 1.035-.332 2.301.149 1.265.481 3.465.652 4.888.38s3.513.001 4.646.607c1.552.831 2.256.793 2.862-.154.905-1.416 8.303-1.771 8.303-.398 0 .487.563.441 1.25-.103.688-.544 3.275-.808 5.75-.586 2.475.222 6.75.543 9.5.714 3.733.231 4.893.666 4.577 1.713-.919 3.049-1.16 17.371-.27 16.072.647-.946 1.09-.213 1.529 2.529.39 2.443 1.926 5.289 4.181 7.751l3.565 3.892-4.249 4.329c-2.337 2.382-5.022 4.33-5.967 4.33-.944 0-6.549-4.95-12.456-11-9.776-10.014-11.065-11-14.374-11-4.587 0-6.036 1.449-6.036 6.035 0 3.324 1.019 4.633 11.904 15.289 6.547 6.409 13.101 12.108 14.565 12.664 7.87 2.992 13.757.661 24.007-9.508 3.039-3.014 5.774-5.48 6.079-5.48.305 0 2.458.867 4.785 1.927 2.326 1.06 5.458 2.235 6.961 2.612 1.502.377 3.624 1.821 4.715 3.208 1.818 2.312 1.984 4.087 1.984 21.199 0 17.414.138 18.825 2.039 20.865 2.543 2.73 6.34 2.81 8.961.189 1.852-1.852 2-3.333 2-20.057 0-21.334-.861-25.76-5.995-30.805-5.329-5.237-6.611-6.109-9.969-6.781-1.707-.341-2.728-1.046-2.365-1.633.388-.629.143-.727-.628-.25-.697.43-1.554.38-1.905-.112-.351-.493-2.877-1.476-5.614-2.185-2.737-.71-5.212-1.663-5.5-2.118-.288-.455-1.413-.996-2.499-1.202-1.086-.206-2.542-1.496-3.235-2.866-.753-1.488-1.298-1.887-1.354-.991-.052.825-.554.238-1.116-1.304-1.109-3.04-.25-10.08 1.126-9.23.464.288 1.113-.178 1.442-1.035.339-.884 1.107-1.243 1.775-.83.792.489.97.188.544-.922-.424-1.106.096-2.001 1.58-2.719 2.132-1.031 2.142-1.014.272.485-1.068.855-1.484 1.555-.924 1.555 1.115 0 5.059-3.905 5.554-5.5.171-.55.761-.811 1.311-.579.55.232 1.97.457 3.155.5 1.184.043 1.945.416 1.69.829-.602.975 1.096.975 2.071 0 .413-.412 1.824-.771 3.137-.796 2.292-.044 2.318.033.667 1.922-1.27 1.453-1.328 1.75-.22 1.136.825-.458 1.17-.468.768-.023-.403.445-1.752 1.317-2.998 1.938-1.246.622-2.266 1.86-2.268 2.753-.001.893-1.689 3.265-3.752 5.27-3.074 2.989-3.75 4.352-3.75 7.563 0 4.358 1.824 5.991 6.684 5.982 2.21-.004 4.859-2.025 12.316-9.395 5.225-5.164 9.907-9.142 10.405-8.84.497.302.667.142.377-.355-.289-.498.385-1.805 1.5-2.905 1.114-1.1 1.657-1.361 1.208-.58-.603 1.046-.394 1.257.795.801 1.187-.456 1.45-.193.994.994-.394 1.028-.219 1.366.482.933.605-.374 2.323.452 3.816 1.836 1.493 1.384 3.126 2.516 3.628 2.516.502 0 .589.563.194 1.25-.396.688-.351.916.099.509.45-.408 1.455-.213 2.233.433 2.283 1.894 17.293 2.19 20.269.398 1.375-.827 3.512-1.962 4.75-2.522 1.238-.56 2.25-1.466 2.25-2.012s.629-.752 1.399-.456c.769.295 1.739-.014 2.154-.686.515-.834.339-.965-.553-.414-.866.535-1.068.418-.595-.345.392-.635 1.253-1.155 1.913-1.155.661 0 1.786-.938 2.502-2.084.76-1.216 1.917-1.847 2.781-1.516.984.378 1.382.022 1.189-1.062-.159-.897.385-1.824 1.21-2.06 1.256-.36 1.271-.271.094.551-1.023.715-.41.954 2.25.878 2.011-.057 3.656-.48 3.656-.94 0-.461.787-.428 1.75.072s2.65.577 3.75.17c1.1-.407 2.9-.416 4-.019 1.1.396 3.125.541 4.5.322 1.375-.219 6.325-.424 11-.455 5.191-.035 8.826-.505 9.337-1.207.5-.687.632-.221.328 1.157-.404 1.836-.236 2.081.825 1.202.935-.777 1.528-.789 1.99-.041.362.585 1.19.726 1.839.312 1.737-1.107 8.989-1.143 10.386-.051.938.732 1.22-12.528 1.272-59.644L257.043 0H0v59.5m.469.5c0 32.725.126 46.112.28 29.75.155-16.363.155-43.138 0-59.5C.595 13.887.469 27.275.469 60m157.8-2.307c.973.254 2.323.237 3-.037.677-.274-.119-.481-1.769-.461-1.65.02-2.204.244-1.231.498M72.232 96c0 1.925.206 2.713.457 1.75.252-.963.252-2.537 0-3.5-.251-.963-.457-.175-.457 1.75m5.018 6.689c.963.252 2.537.252 3.5 0 .963-.251.175-.457-1.75-.457s-2.713.206-1.75.457m79.518.036c1.797.222 4.497.218 6-.01 1.503-.229.032-.411-3.268-.405-3.3.005-4.529.192-2.732.415m38.482 2.964c.963.252 2.537.252 3.5 0 .963-.251.175-.457-1.75-.457s-2.713.206-1.75.457m7.982 6.311c0 1.925.206 2.713.457 1.75.252-.963.252-2.537 0-3.5-.251-.963-.457-.175-.457 1.75m-179.817 8.138c-.432.698-.292.904.345.51.588-.363 1.297-.095 1.576.596.362.899.529.917.585.065.114-1.721-1.656-2.548-2.506-1.171m53 0c-.432.698-.292.904.345.51.588-.363 1.297-.095 1.576.596.362.899.529.917.585.065.114-1.721-1.656-2.548-2.506-1.171m15.701 1.96c-.614 1.76-1.086 4.146-1.049 5.301.038 1.156.673-.149 1.412-2.899 1.532-5.698 1.306-7.191-.363-2.402M19.5 121c.34.55.816 1 1.059 1s.441-.45.441-1-.477-1-1.059-1-.781.45-.441 1m148.313-.317c.721.289 1.584.253 1.916-.079.332-.332-.258-.568-1.312-.525-1.165.048-1.402.285-.604.604m6 0c.721.289 1.584.253 1.916-.079.332-.332-.258-.568-1.312-.525-1.165.048-1.402.285-.604.604M230.5 121c.34.55.816 1 1.059 1s.441-.45.441-1-.477-1-1.059-1-.781.45-.441 1m-213.936 1.293c.376.986.935 1.541 1.243 1.233.308-.307.001-1.114-.683-1.793-.988-.98-1.102-.865-.56.56m52.647.106c.709.77 1.447 1.25 1.639 1.067.593-.564-.91-2.466-1.948-2.466-.54 0-.401.63.309 1.399M105.232 133c0 1.925.206 2.713.457 1.75.252-.963.252-2.537 0-3.5-.251-.963-.457-.175-.457 1.75m63.536 2.725c1.797.222 4.497.218 6-.01 1.503-.229.032-.411-3.268-.405-3.3.005-4.529.192-2.732.415m-54.689 2.858c.048 1.165.285 1.402.604.605.289-.722.253-1.585-.079-1.917-.332-.332-.568.258-.525 1.312M55.158 144c0 1.375.227 1.938.504 1.25.278-.687.278-1.812 0-2.5-.277-.687-.504-.125-.504 1.25" fill="#1976D2" fill-rule="evenodd"/><path fill-opacity=".612" d="M150.485 60.105c-9.047 4.78-12.944 11.494-12.301 21.195.479 7.226 3.593 12.712 9.479 16.7 3.189 2.16 4.798 2.5 11.837 2.5 7.038 0 8.649-.34 11.839-2.5 6.032-4.083 9.019-9.251 9.473-16.392.443-6.946-.942-11.249-5.271-16.383-5.829-6.914-17.244-9.246-25.056-5.12m4.964 10.446c-7.029 3.469-8.204 11.953-2.338 16.889 4.022 3.384 8.756 3.384 12.778 0 5.9-4.965 4.762-13.48-2.246-16.805-4.166-1.977-4.354-1.979-8.194-.084m-58.212 1.484C91.922 74.397 73 92.871 73 95.699c0 2.688 3.08 5.301 6.247 5.301 1.914 0 4.968-2.337 11.715-8.963 9.409-9.24 12.96-11.098 18.201-9.526C111.777 83.296 121 91.84 121 93.477c0 .579-5.657 6.671-12.572 13.538-6.914 6.867-13.439 14.155-14.5 16.195-3.888 7.481-1.859 18.82 4.614 25.79 1.86 2.003 2.087 2.798 1.14 4-2.423 3.075-8.807 8-10.37 8-.891 0-6.636-4.95-12.768-11-8.303-8.192-11.798-11-13.692-11-2.891 0-5.852 2.773-5.852 5.482 0 2.417 21.601 24.37 25.718 26.137 3.849 1.652 9.106 1.779 12.962.313 1.545-.588 6.016-4.177 9.934-7.977l7.125-6.909 6.381 2.549c3.509 1.402 7.371 2.947 8.582 3.434 4.514 1.814 5.298 5.49 5.298 24.849v17.977l2.601 2.046c2.402 1.889 2.824 1.931 5.5.547l2.899-1.499v-19.853c0-29.774-.741-30.879-27.323-40.704-8.616-3.185-12.26-5.884-13.245-9.807-1.269-5.056.617-7.975 13.626-21.085l12.9-13 5.224 5.214 5.223 5.215-12.203 12.445C121.091 131.628 116 137.627 116 138.755c0 1.064.823 2.68 1.829 3.59 3.848 3.483 6.145 2.214 18.612-10.285l11.909-11.941 5.55 5.073c14.457 13.212 24.133 11.671 44.35-7.064 2.612-2.421 4.75-5.162 4.75-6.091 0-2.022-4.04-6.037-6.075-6.037-.796 0-5.267 3.074-9.936 6.831-4.669 3.758-9.472 7.358-10.673 8-2.773 1.484-6.822 1.495-9.632.028-1.201-.627-12.599-11.546-25.329-24.264-19.529-19.512-23.904-23.396-28-24.865-6.115-2.192-10.693-2.105-16.118.305" fill="#1976D2" fill-rule="evenodd"/><path fill-opacity=".962" d="M151.007 60.593c-9.747 4.227-14.845 15.356-11.562 25.24 4.486 13.509 19.275 18.956 31.292 11.526 14.138-8.741 12.392-30.393-2.969-36.811-4.661-1.948-12.212-1.928-16.761.045m3.35 9.399C151.008 71.343 149 75.04 149 79.854c0 3.761.525 4.905 3.571 7.778 4.074 3.842 7.621 4.312 12.296 1.629 3.68-2.111 5.133-5.052 5.133-10.385 0-7.63-7.789-12.054-15.643-8.884M98.559 72.19c-2.908.811-6.645 3.749-14.252 11.205-10.591 10.379-11.931 12.838-8.736 16.034 2.968 2.967 5.384 1.697 15.022-7.893 9.815-9.768 13.247-11.621 18.57-10.026C111.521 82.217 122 91.767 122 93.209c0 .428-5.909 6.743-13.131 14.035-7.222 7.291-13.747 14.704-14.5 16.474-1.762 4.141-1.758 13.414.006 17.637.756 1.81 2.775 4.885 4.487 6.835l3.112 3.544-5.427 5.133C93.562 159.69 90.325 162 89.353 162c-.972 0-6.918-5.175-13.214-11.5S63.894 139 62.918 139C60.49 139 58 141.687 58 144.307c0 1.441 4.091 6.209 12.25 14.279 10.585 10.47 12.799 12.202 16.288 12.743 6.703 1.041 10.518-.707 18.19-8.333 3.87-3.848 7.775-6.996 8.677-6.996 3.512 0 16.816 6.408 18.439 8.88 1.347 2.054 1.749 6.149 2.156 21.96.47 18.286.618 19.479 2.5 20.168 1.1.402 3.012.355 4.25-.106 2.233-.831 2.25-.994 2.25-21.305 0-11.257-.432-21.603-.96-22.992-2.204-5.798-8.071-9.917-21.455-15.066-15.338-5.901-17.585-7.812-17.585-14.956v-4.937l13.48-13.573 13.48-13.573 5.739 5.73 5.739 5.729-12.219 12.36C121.436 132.191 117 137.437 117 138.768c0 2.581 2.524 5.232 4.98 5.232 1.013 0 7.229-5.383 13.857-12 6.61-6.6 12.329-12 12.707-12 .379 0 3.34 2.455 6.581 5.455 7.689 7.119 14.182 8.977 22.904 6.553 3.181-.883 21.386-14.493 23.199-17.343 1.97-3.096-.553-7.665-4.233-7.665-1.025 0-5.605 3.078-10.179 6.841-4.574 3.762-9.299 7.362-10.5 8-3.137 1.664-7.418 1.418-10.367-.598-1.403-.958-12.542-11.745-24.753-23.969-12.21-12.224-23.601-22.949-25.311-23.834-3.986-2.061-12.274-2.659-17.326-1.25" fill="#1976D2" fill-rule="evenodd"/></svg>